<svg width="72" height="77" viewBox="0 0 72 77" fill="none" xmlns="http://www.w3.org/2000/svg">
<path fill-rule="evenodd" clip-rule="evenodd" d="M37.2 15.5831C37.2 16.2191 36.8 16.6431 36.2 16.6431C35.7 16.6431 35.2 16.1131 35.2 15.5831V9.54066C35.2 8.90462 35.6 8.48059 36.2 8.48059C36.8 8.48059 37.2 8.90462 37.2 9.54066V15.5831ZM55.2 56.2898V38.1626C55.2 27.1378 46.7 18.1272 36.3 18.1272H36.2C25.8 18.1272 17.3 27.1378 17.3 38.1626V56.1838C12.1 56.5018 8 61.1661 8 66.7845C8 67.4205 8.4 67.8446 9 67.8446H63.2C63.8 67.8446 64.2 67.4205 64.2 66.7845C64.1 61.3781 60.2 56.8198 55.2 56.2898ZM36.2 20.2474H36.3C45.6 20.2474 53.2 28.3039 53.2 38.1626V56.1838H37.3V50.5654C40.1 50.0354 42.3 47.4912 42.3 44.311C42.3 40.8128 39.6 37.9506 36.3 37.9506C33 37.9506 30.3 40.8128 30.3 44.311C30.3 47.4912 32.5 50.0354 35.3 50.5654V56.1838H19.2V38.1626C19.2 28.3039 26.8 20.2474 36.2 20.2474ZM32.3 44.311C32.3 46.6431 34.1 48.5513 36.3 48.5513C38.5 48.5513 40.3 46.6431 40.3 44.311C40.3 41.9788 38.5 40.0707 36.3 40.0707C34.1 40.0707 32.3 41.9788 32.3 44.311ZM9.9 65.7244C10.4 61.5901 13.8 58.3039 17.8 58.3039H54C58.1 58.3039 61.4 61.5901 61.9 65.7244H9.9ZM56.4 27.3499C56.6 27.3499 56.7 27.3499 56.9 27.2438L61.8 24.2756C62.3 23.9576 62.4 23.3216 62.2 22.7915C61.9 22.2615 61.3 22.1555 60.8 22.3675L55.9 25.4417C55.4 25.7597 55.3 26.3958 55.5 26.9258C55.7 27.2438 56 27.3499 56.4 27.3499ZM15.7 27.2438L10.8 24.2756C10.3 23.9576 10.1 23.3216 10.4 22.7915C10.7 22.2615 11.3 22.0495 11.8 22.3675L16.7 25.3357C17.2 25.6537 17.4 26.2898 17.1 26.8198C16.9 27.1378 16.5 27.3499 16.2 27.3499C16 27.3499 15.9 27.3499 15.7 27.2438ZM48.8 17.8092C49.1 17.8092 49.3 17.7032 49.5 17.4912L53.5 13.2509C53.9 12.8269 53.9 12.1908 53.5 11.7668C53.1 11.3428 52.5 11.3428 52.1 11.7668L48.1 16.0071C47.7 16.4311 47.7 17.0672 48.1 17.4912C48.3 17.7032 48.5 17.8092 48.8 17.8092ZM22.9 17.9152C22.7 17.9152 22.4 17.8092 22.2 17.5972L18.2 13.3569C17.8 12.9329 17.8 12.2968 18.2 11.8728C18.6 11.4488 19.2 11.4488 19.6 11.8728L23.6 16.1131C24 16.5371 24 17.1732 23.6 17.5972C23.4 17.8092 23.1 17.9152 22.9 17.9152Z" fill="white"/>
</svg>
