<svg width="72" height="72" viewBox="0 0 72 72" fill="none" xmlns="http://www.w3.org/2000/svg">
<path fill-rule="evenodd" clip-rule="evenodd" d="M58 19.1H59C61.8 19.1 64 21.4 64 24.1V56.5C64 59.3 61.8 61.5 59 61.5H13C10.2 61.5 8 59.3 8 56.5V24.1C8 21.3 10.2 19.1 13 19.1H14V17.8C14 16.1 15.3 14.8 17 14.8C18.7 14.8 20 16.1 20 17.8V19.1H25C25.2 14.3 29.2 10.5 34 10.5H38C42.9 10.5 46.8 14.3 47 19.1H52V17.8C52 16.1 53.3 14.8 55 14.8C56.7 14.8 58 16.1 58 17.8V19.1ZM55 16.8C54.4 16.8 54 17.2 54 17.8V19.1H56V17.8C56 17.2 55.6 16.8 55 16.8ZM34 12.5H38C41.7 12.5 44.8 15.4 45 19.1H27C27.2 15.4 30.3 12.5 34 12.5ZM17 16.8C16.4 16.8 16 17.2 16 17.8V19.1H18V17.8C18 17.2 17.6 16.8 17 16.8ZM13 21.1H59C60.7 21.1 62 22.4 62 24.1V28.1H10V24.1C10 22.5 11.3 21.1 13 21.1ZM13 59.5H59C60.7 59.5 62 58.2 62 56.5V30.1H10V56.5C10 58.2 11.3 59.5 13 59.5Z" fill="#0077B6"/>
<path fill-rule="evenodd" clip-rule="evenodd" d="M39.5 41.2H42.2C44.2 41.2 45.8 42.7 45.8 44.7C45.8 46.7 44.2 48.3 42.2 48.3H39.5V51C39.5 53 37.9 54.6 35.9 54.6C33.9 54.6 32.3 53 32.3 51V48.4H29.6C27.6 48.4 26 46.8 26 44.8C26 42.8 27.6 41.2 29.6 41.2H32.3V38.5C32.3 36.5 33.9 34.9 35.9 34.9C37.9 34.9 39.5 36.5 39.5 38.5V41.2ZM38.5 46.4H42.2C43.1 46.4 43.8 45.7 43.8 44.7C43.8 43.8 43.1 43.1 42.2 43.1H38.5C37.9 43.1 37.5 42.7 37.5 42.1V38.4C37.5 37.5 36.8 36.8 35.9 36.8C35 36.8 34.3 37.5 34.3 38.4V42.1C34.3 42.7 33.9 43.1 33.3 43.1H29.6C28.7 43.1 28 43.8 28 44.7C28 45.6 28.7 46.3 29.6 46.3H33.3C33.9 46.3 34.3 46.7 34.3 47.3V51C34.3 51.9 35 52.6 35.9 52.6C36.8 52.6 37.5 51.9 37.5 51V47.4C37.5 46.8 37.9 46.4 38.5 46.4Z" fill="#0077B6"/>
</svg>
