<svg width="74" height="68" viewBox="0 0 74 68" fill="none" xmlns="http://www.w3.org/2000/svg">
<path fill-rule="evenodd" clip-rule="evenodd" d="M25.1282 24.65C25.0256 24.3667 24.8205 24.1778 24.6153 24.1778C24.4102 24.1778 24.2051 24.2723 24.1025 24.3667L18.0512 31.5445C17.5384 32.1112 16.8205 32.4889 16 32.4889H9.12818C8.5128 32.4889 8.10254 32.1112 8.10254 31.5445C8.10254 30.9778 8.5128 30.6 9.12818 30.6H16C16.1025 30.6 16.3077 30.6 16.4102 30.4112L22.5641 23.3278C23.1794 22.5723 24.1025 22.2889 25.0256 22.3834C26.0512 22.4778 26.8718 23.1389 27.1794 24.0834L32.1025 37.0223C32.2051 37.3056 32.4102 37.4945 32.6153 37.4945C32.7179 37.4945 32.923 37.4 33.0256 37.3056L39.1794 31.45C39.6923 30.9778 40.3076 30.6945 41.0256 30.6945H43.6923C44.2051 29.3723 45.5384 28.3334 47.1794 28.3334C49.1281 28.3334 50.7692 29.8445 50.7692 31.6389C50.7692 33.4334 49.1281 34.9445 47.1794 34.9445C45.5384 34.9445 44.1025 34 43.6923 32.5834H41.0256C40.8205 32.5834 40.7179 32.6778 40.6153 32.7723L34.4615 38.6278C33.9487 39.1 33.3333 39.3834 32.6153 39.3834C32.5128 39.3834 32.4359 39.3598 32.3589 39.3362C32.282 39.3125 32.2051 39.2889 32.1025 39.2889C31.1794 39.1 30.3589 38.4389 30.0512 37.5889L25.1282 24.65ZM48.6153 31.6389C48.6153 30.8834 47.8974 30.2223 47.0769 30.2223C46.1538 30.2223 45.5384 30.8834 45.5384 31.6389C45.5384 32.3945 46.2564 33.0556 47.0769 33.0556C47.8974 33.0556 48.6153 32.3945 48.6153 31.6389Z" fill="#FFFDFD"/>
<path d="M65.436 53.2667L55.6925 44.2945C58.7694 40.9889 60.6155 36.7389 60.6155 32.0167C60.6155 21.6278 51.3848 13.1278 40.1027 13.1278C35.2822 13.1278 30.6668 14.6389 26.9745 17.4723C26.5643 17.85 26.4617 18.4167 26.872 18.7945C27.2822 19.1723 27.8976 19.2667 28.3079 18.8889C31.5899 16.3389 35.795 14.9223 40.1027 14.9223C50.2566 14.9223 58.5642 22.5723 58.5642 31.9223C58.5642 41.2723 50.2566 48.9223 40.1027 48.9223C32.6156 48.9223 25.9489 44.8611 23.0771 38.5334C22.872 38.0611 22.2566 37.8723 21.7438 38.0611C21.2309 38.25 21.0258 38.8167 21.2309 39.2889C24.3079 46.3723 31.795 50.9056 40.0002 50.9056C45.5386 50.9056 50.4617 48.9223 54.154 45.6167L63.8976 54.5889C64.1027 54.7778 64.4104 54.8723 64.6155 54.8723C64.8206 54.8723 65.1283 54.7778 65.3335 54.5889C65.7437 54.2111 65.7437 53.6445 65.436 53.2667Z" fill="#FFFDFD"/>
</svg>
