<svg width="58" height="58" viewBox="0 0 58 58" fill="none" xmlns="http://www.w3.org/2000/svg">
<path fill-rule="evenodd" clip-rule="evenodd" d="M27.04 22.1528C27.52 22.1528 27.84 21.8306 27.84 21.3472V21.025H30.16C30.32 22.7972 31.04 24.4083 32.08 25.6972L30.48 27.3889L30.32 27.2278C30 26.9056 29.52 26.9056 29.2 27.2278C28.88 27.55 28.88 28.0333 29.2 28.3556L30.72 29.8861C30.88 30.0472 31.12 30.1278 31.28 30.1278C31.44 30.1278 31.68 30.0472 31.84 29.8861C32.16 29.5639 32.16 29.0806 31.84 28.7583L31.68 28.5972L33.36 26.9056C34.64 27.9528 36.24 28.6778 38 28.8389V31.175H37.68C37.2 31.175 36.88 31.4972 36.88 31.9806C36.88 32.4639 37.2 32.7861 37.68 32.7861H39.84C40.32 32.7861 40.64 32.4639 40.64 31.9806C40.64 31.4972 40.32 31.175 39.84 31.175H39.52V28.8389C41.28 28.6778 42.88 27.9528 44.16 26.9056L45.84 28.5972L45.68 28.7583C45.36 29.0806 45.36 29.5639 45.68 29.8861C45.84 30.0472 46.08 30.1278 46.24 30.1278C46.4 30.1278 46.64 30.0472 46.8 29.8861L47.6 29.0806L48.4 28.275C48.72 27.9528 48.72 27.4695 48.4 27.1472C48.08 26.825 47.6 26.825 47.28 27.1472L46.96 27.3889L45.36 25.7778C46.4 24.4889 47.12 22.8778 47.28 21.1056H49.6V21.4278C49.6 21.9111 49.92 22.2333 50.4 22.2333C50.88 22.2333 51.2 21.9111 51.2 21.4278V19.2528C51.2 18.7695 50.88 18.4472 50.4 18.4472C49.92 18.4472 49.6 18.7695 49.6 19.2528V19.575H47.28C47.12 17.8028 46.4 16.1917 45.36 14.9028L47.04 13.2111L47.2 13.3722C47.36 13.5333 47.6 13.6139 47.76 13.6139C47.92 13.6139 48.16 13.5333 48.32 13.3722C48.64 13.05 48.64 12.5667 48.32 12.2445L46.8 10.7139C46.48 10.3917 46 10.3917 45.68 10.7139C45.36 11.0361 45.36 11.5195 45.68 11.8417L45.84 12.0028L44.16 13.6945C42.88 12.6472 41.28 11.9222 39.52 11.7611V9.42501H39.84C40.32 9.42501 40.64 9.10279 40.64 8.61946C40.64 8.13613 40.32 7.8139 39.84 7.8139H37.68C37.2 7.8139 36.88 8.13613 36.88 8.61946C36.88 9.10279 37.2 9.42501 37.68 9.42501H38V11.7611C36.24 11.9222 34.64 12.6472 33.36 13.6945L31.68 12.0028L31.84 11.8417C32.16 11.5195 32.16 11.0361 31.84 10.7139C31.52 10.3917 31.04 10.3917 30.72 10.7139L29.2 12.2445C28.88 12.5667 28.88 13.05 29.2 13.3722C29.36 13.5333 29.6 13.6139 29.76 13.6139C29.92 13.6139 30.16 13.5333 30.32 13.3722L30.48 13.2111L32.16 14.9028C31.12 16.1917 30.4 17.8028 30.24 19.575H27.92V19.2528C27.92 18.7695 27.6 18.4472 27.12 18.4472C26.64 18.4472 26.32 18.7695 26.32 19.2528V21.4278C26.24 21.75 26.64 22.1528 27.04 22.1528ZM47.12 42.05H39.2C37.36 42.05 35.52 41.6472 33.84 40.8417C34.56 39.5528 34.32 37.8611 33.2 36.7333L26.08 29.5639C23.92 27.3889 20.96 26.1806 17.92 26.1806H15.36C14.88 25.0528 13.76 24.2472 12.4 24.2472H9.43999C7.67999 24.2472 6.23999 25.6972 6.23999 27.4695V39.0695C6.23999 40.8417 7.67999 42.2917 9.43999 42.2917H12.4C13.52 42.2917 14.48 41.7278 15.12 40.7611C16.4 41.1639 19.6 42.3722 21.36 44.1445L21.44 44.225C25.36 48.1722 30.64 50.3472 36.16 50.3472H47.04C49.28 50.3472 51.12 48.4945 51.12 46.2389C51.28 43.9028 49.44 42.05 47.12 42.05ZM12.56 40.6H9.59999C8.71999 40.6 7.99999 39.875 7.99999 38.9889V27.3889C7.99999 26.5028 8.71999 25.7778 9.59999 25.7778H12.56C13.44 25.7778 14.16 26.5028 14.16 27.3889V38.9889C14.08 39.875 13.44 40.6 12.56 40.6ZM36.24 48.7361H47.12C48.56 48.7361 49.68 47.6083 49.76 46.0778C49.76 44.7083 48.64 43.5806 47.28 43.5806H39.36C37.04 43.5806 34.88 43.0167 32.88 41.9695C31.52 42.9361 29.6 42.775 28.4 41.5667L22.72 35.8472C22.4 35.525 22.4 35.0417 22.72 34.7195C23.04 34.3972 23.52 34.3972 23.84 34.7195L29.52 40.4389C30.24 41.1639 31.44 41.1639 32.16 40.4389C32.88 39.7139 32.88 38.5056 32.16 37.7806L25.04 30.6111C23.2 28.7583 20.64 27.7111 18 27.7111H15.68V38.9889V39.15C17.04 39.5528 20.48 40.8417 22.56 42.9361L22.64 43.0167C26.32 46.7222 31.12 48.7361 36.24 48.7361ZM45.68 20.2195C45.68 16.3528 42.56 13.2111 38.72 13.2111C34.88 13.2111 31.76 16.3528 31.76 20.2195C31.76 24.0861 34.88 27.2278 38.72 27.2278C42.56 27.2278 45.68 24.0861 45.68 20.2195Z" fill="#0077B6"/>
<path fill-rule="evenodd" clip-rule="evenodd" d="M38.7199 18.6889C39.2799 18.6889 39.8399 18.2056 39.8399 17.5611C39.8399 16.9972 39.3599 16.4333 38.7199 16.4333C38.1599 16.4333 37.5999 16.9167 37.5999 17.5611C37.6799 18.2056 38.1599 18.6889 38.7199 18.6889ZM36.5599 23.1195C37.1199 23.1195 37.6799 22.6361 37.6799 21.9917C37.6799 21.4278 37.1999 20.8639 36.5599 20.8639C35.9999 20.8639 35.4399 21.3472 35.4399 21.9917C35.5199 22.6361 35.9999 23.1195 36.5599 23.1195ZM41.9999 21.9917C41.9999 22.6361 41.4399 23.1195 40.8799 23.1195C40.3199 23.1195 39.8399 22.6361 39.7599 21.9917C39.7599 21.3472 40.3199 20.8639 40.8799 20.8639C41.5199 20.8639 41.9999 21.4278 41.9999 21.9917Z" fill="#0077B6"/>
</svg>
