<svg width="32" height="28" viewBox="0 0 32 28" fill="none" xmlns="http://www.w3.org/2000/svg">
<path d="M10.6666 20.1822L15.9999 25.5155M15.9999 25.5155L21.3332 20.1822M15.9999 25.5155L15.9999 13.5155M27.8399 21.6355C28.9991 20.8204 29.8684 19.6571 30.3216 18.3144C30.7749 16.9717 30.7885 15.5196 30.3604 14.1686C29.9324 12.8177 29.0851 11.6383 27.9413 10.8016C26.7976 9.96491 25.417 9.51443 23.9999 9.51554H22.3199C21.9189 7.9527 21.1686 6.5012 20.1254 5.27031C19.0822 4.03942 17.7734 3.06122 16.2975 2.40934C14.8216 1.75747 13.217 1.44891 11.6046 1.50689C9.99219 1.56488 8.41393 1.9879 6.98865 2.7441C5.56337 3.50031 4.32821 4.57 3.37616 5.87264C2.42411 7.17528 1.77998 8.67693 1.49226 10.2645C1.20454 11.8521 1.28072 13.4843 1.71508 15.0382C2.14944 16.5921 2.93066 18.0272 3.99991 19.2355" stroke="#0077B6" stroke-width="3" stroke-linecap="round" stroke-linejoin="round"/>
</svg>
