<svg width="72" height="76" viewBox="0 0 72 76" fill="none" xmlns="http://www.w3.org/2000/svg">
<path fill-rule="evenodd" clip-rule="evenodd" d="M39.3541 31.5755H42.5103C44.5815 31.5755 46.3568 33.4575 46.3568 35.6531C46.3568 37.8488 44.6801 39.7308 42.5103 39.7308H39.3541V43.0765C39.3541 45.2722 37.5788 47.1542 35.5075 47.1542C33.4363 47.1542 31.6609 45.3768 31.6609 43.0765V39.7308H28.5048C26.4335 39.7308 24.6582 37.8488 24.6582 35.6531C24.6582 33.4575 26.3349 31.5755 28.5048 31.5755H31.6609V28.2297C31.6609 26.0341 33.4363 24.1521 35.5075 24.1521C37.5788 24.1521 39.3541 25.9295 39.3541 28.2297V31.5755ZM38.3678 37.6397H42.5103C43.4966 37.6397 44.3842 36.8032 44.3842 35.6531C44.3842 34.6076 43.5952 33.6666 42.5103 33.6666H38.3678C37.776 33.6666 37.3815 33.2484 37.3815 32.621V28.2297C37.3815 27.1842 36.5925 26.2432 35.5075 26.2432C34.5212 26.2432 33.6335 27.0796 33.6335 28.2297V32.621C33.6335 33.2484 33.239 33.6666 32.6472 33.6666H28.5048C27.5185 33.6666 26.6308 34.503 26.6308 35.6531C26.6308 36.6987 27.4198 37.6397 28.5048 37.6397H32.6472C33.239 37.6397 33.6335 38.0579 33.6335 38.6852V43.0765C33.6335 44.1221 34.4226 45.0631 35.5075 45.0631C36.4938 45.0631 37.3815 44.2266 37.3815 43.0765V38.6852C37.3815 38.0579 37.776 37.6397 38.3678 37.6397Z" fill="white"/>
<path fill-rule="evenodd" clip-rule="evenodd" d="M61.6441 8.67801C61.9399 8.4689 62.3345 8.36435 62.6304 8.57346C62.9262 8.78257 63.1235 9.09623 63.1235 9.51445V27.4979C63.1235 39.3126 57.6002 50.5 48.329 57.5052L36.0988 66.8106C35.9016 66.9151 35.7043 67.0197 35.5071 67.0197C35.3098 67.0197 35.1125 66.9151 34.9153 66.8106L22.6851 57.5052C13.4139 50.5 7.89062 39.3126 7.89062 27.4979V9.51445C7.89062 9.09623 8.08789 8.78257 8.48241 8.57346C8.7783 8.36435 9.17282 8.4689 9.46871 8.67801C16.7673 14.4285 26.729 14.6376 34.3235 9.20078L35.0139 8.67801C35.4084 8.36435 35.9016 8.4689 36.1975 8.67801L36.3947 8.88712C43.6934 14.5331 53.655 14.5331 61.1509 8.99168L61.6441 8.67801ZM47.1454 55.8323C55.9235 49.2453 61.1509 38.5807 61.1509 27.4979V11.501C53.2605 16.6242 43.2002 16.4151 35.5071 10.7691L35.4084 10.8737C27.7153 16.5196 17.655 16.6242 9.86323 11.501V27.4979C9.86323 38.6853 15.0906 49.2453 23.8687 55.8323L35.5071 64.7195L47.1454 55.8323Z" fill="white"/>
</svg>
