<svg width="58" height="58" viewBox="0 0 58 58" fill="none" xmlns="http://www.w3.org/2000/svg">
<path fill-rule="evenodd" clip-rule="evenodd" d="M14.6453 50.9527H20.0093C22.2301 50.9527 24.0373 49.1329 24.0373 46.8975V42.8786C24.0373 41.1644 24.4613 39.459 25.2645 37.9478L26.5357 35.5561C27.4165 33.8967 27.9517 32.7399 27.9517 30.6777V23.2392C27.9517 21.8415 26.7149 20.7049 25.1949 20.7049C24.7813 20.7049 24.3893 20.7887 24.0373 20.9393V12.3392C24.0373 10.9423 22.8005 9.80571 21.2797 9.80571C20.8669 9.80571 20.4749 9.88949 20.1229 10.0401V9.58176C20.1229 8.18412 18.8861 7.04749 17.3653 7.04749C15.8453 7.04749 14.6077 8.18412 14.6077 9.58176V11.2332C14.2557 11.0833 13.8637 10.9987 13.4509 10.9987C11.9309 10.9987 10.6933 12.1354 10.6933 13.533V15.2843C10.3221 15.1135 9.90288 15.016 9.46048 15.016C7.93968 15.016 6.70288 16.1535 6.70288 17.5511V29.8648C6.70288 29.8858 6.70368 29.9067 6.70528 29.9277C6.75328 32.4974 7.50448 34.2567 8.77408 36.389C9.98048 38.415 10.6181 40.7342 10.6181 43.0969V46.8975C10.6181 49.1329 12.4245 50.9527 14.6453 50.9527ZM10.1469 35.5609C8.95088 33.5519 8.30288 32.0181 8.30288 29.6667V17.5511C8.30288 17.042 8.82208 16.6272 9.46048 16.6272C10.0989 16.6272 10.6181 17.042 10.6181 17.5511V23.3648C10.6181 23.65 10.7677 23.9142 11.0125 24.0592L11.0877 24.1043C11.3365 24.2493 11.6421 24.2509 11.8909 24.1092C12.1397 23.965 12.2933 23.6983 12.2933 23.4091V13.533C12.2933 13.0328 12.8237 12.6098 13.4509 12.6098C14.0781 12.6098 14.6077 13.0328 14.6077 13.533V23.4091C14.6077 23.8546 14.9661 24.2147 15.4077 24.2147C15.8501 24.2147 16.2077 23.8546 16.2077 23.4091V9.58176C16.2077 9.07346 16.7269 8.6586 17.3653 8.6586C18.0037 8.6586 18.5229 9.07346 18.5229 9.58176V23.4091C18.5229 23.8546 18.8813 24.2147 19.3229 24.2147C19.7645 24.2147 20.1229 23.8546 20.1229 23.4091V12.3392C20.1229 11.8389 20.6525 11.4168 21.2797 11.4168C21.9069 11.4168 22.4373 11.8389 22.4373 12.3392V29.7013C22.4373 30.1468 22.7957 30.5069 23.2373 30.5069C23.6789 30.5069 24.0373 30.1468 24.0373 29.7013V23.2392C24.0373 22.7381 24.5677 22.316 25.1949 22.316C25.8221 22.316 26.3517 22.7381 26.3517 23.2392V30.6777C26.3517 32.3145 25.9781 33.1894 25.1245 34.7957L23.8533 37.1882C22.9269 38.9322 22.4373 40.9002 22.4373 42.8786V46.8975C22.4373 48.2444 21.3485 49.3416 20.0093 49.3416H14.6453C13.3069 49.3416 12.2181 48.2444 12.2181 46.8975V43.0969C12.2181 40.4426 11.5013 37.8374 10.1469 35.5609Z" fill="#0077B6"/>
<path fill-rule="evenodd" clip-rule="evenodd" d="M37.665 50.9527H43.0298C45.2498 50.9527 47.057 49.1329 47.057 46.8975V43.0969C47.057 40.7342 47.6946 38.415 48.9002 36.389C50.1698 34.2567 50.9218 32.4974 50.969 29.9277C50.9706 29.9067 50.9714 29.8858 50.9714 29.8648V17.5511C50.9714 16.1535 49.7346 15.016 48.2138 15.016C47.7714 15.016 47.3522 15.1135 46.981 15.2843V13.533C46.981 12.1354 45.7442 10.9987 44.2234 10.9987C43.8106 10.9987 43.4186 11.0833 43.0666 11.2332V9.58176C43.0666 8.18412 41.8298 7.04749 40.309 7.04749C38.789 7.04749 37.5514 8.18412 37.5514 9.58176V10.0401C37.1994 9.88949 36.8074 9.80571 36.3946 9.80571C34.8746 9.80571 33.637 10.9423 33.637 12.3392V20.9393C33.285 20.7887 32.893 20.7049 32.4802 20.7049C30.9602 20.7049 29.7226 21.8415 29.7226 23.2392V30.6777C29.7226 32.7399 30.2578 33.8967 31.1394 35.5561L32.4098 37.9478C33.213 39.459 33.637 41.1644 33.637 42.8786V46.8975C33.637 49.1329 35.4442 50.9527 37.665 50.9527ZM32.4802 22.316C31.853 22.316 31.3226 22.7381 31.3226 23.2392V30.6777C31.3226 32.3145 31.697 33.1894 32.5498 34.7957L33.821 37.1882C34.7474 38.9322 35.237 40.9002 35.237 42.8786V46.8975C35.237 48.2452 36.3266 49.3416 37.665 49.3416H43.0298C44.3674 49.3416 45.457 48.2452 45.457 46.8975V43.0969C45.457 40.4426 46.173 37.8374 47.5282 35.5609C48.7234 33.5519 49.3714 32.0181 49.3714 29.6667V17.5511C49.3714 17.042 48.8522 16.6272 48.2138 16.6272C47.5762 16.6272 47.057 17.042 47.057 17.5511V23.3648C47.057 23.65 46.9066 23.9142 46.6626 24.0592L46.5866 24.1043C46.3386 24.2501 46.033 24.2517 45.7834 24.1092C45.5346 23.965 45.381 23.6983 45.381 23.4091V13.533C45.381 13.0328 44.8506 12.6098 44.2234 12.6098C43.5962 12.6098 43.0666 13.0328 43.0666 13.533V23.4091C43.0666 23.8546 42.7082 24.2147 42.2666 24.2147C41.825 24.2147 41.4666 23.8546 41.4666 23.4091V9.58176C41.4666 9.07346 40.9474 8.6586 40.309 8.6586C39.6706 8.6586 39.1514 9.07346 39.1514 9.58176V23.4091C39.1514 23.8546 38.7938 24.2147 38.3514 24.2147C37.9098 24.2147 37.5514 23.8546 37.5514 23.4091V12.3392C37.5514 11.8389 37.0218 11.4168 36.3946 11.4168C35.7674 11.4168 35.237 11.8389 35.237 12.3392V29.7013C35.237 30.1468 34.8794 30.5069 34.437 30.5069C33.9954 30.5069 33.637 30.1468 33.637 29.7013V23.2392C33.637 22.7381 33.1074 22.316 32.4802 22.316ZM22.7587 45.9643H11.4179C10.9755 45.9643 10.6179 45.6042 10.6179 45.1587C10.6179 44.7133 10.9755 44.3532 11.4179 44.3532H22.7587C23.2003 44.3532 23.5587 44.7133 23.5587 45.1587C23.5587 45.6042 23.2003 45.9643 22.7587 45.9643Z" fill="#0077B6"/>
<path d="M46.2569 45.9643H34.8889C34.4473 45.9643 34.0889 45.6042 34.0889 45.1587C34.0889 44.7133 34.4473 44.3532 34.8889 44.3532H46.2569C46.6985 44.3532 47.0569 44.7133 47.0569 45.1587C47.0569 45.6042 46.6985 45.9643 46.2569 45.9643" fill="#0077B6"/>
</svg>
