<svg width="74" height="68" viewBox="0 0 74 68" fill="none" xmlns="http://www.w3.org/2000/svg">
<path fill-rule="evenodd" clip-rule="evenodd" d="M46.1539 23.0445C47.4872 22.4778 49.0257 22.95 49.641 24.0834L51.2821 27.0112C51.5898 27.5778 51.6923 28.2389 51.4872 28.8056C51.2821 29.4667 50.7692 29.9389 50.1539 30.2223L46.5641 31.8278L50.0513 33.6223C50.6667 33.9056 51.0769 34.4723 51.2821 35.0389C51.3846 35.7 51.2821 36.2667 50.9744 36.8334L49.1282 39.6667C48.4103 40.8 46.8718 41.1778 45.641 40.5167L41.641 38.4389V42.5C41.641 43.8223 40.5128 44.8612 39.0769 44.8612H35.3846C33.9487 44.8612 32.8205 43.8223 32.8205 42.5V38.0612L28.3077 40.1389C26.9744 40.7056 25.4359 40.2334 24.8205 39.1L23.1795 36.1723C22.8718 35.6056 22.7693 34.9445 22.9744 34.3778C23.1795 33.7167 23.6923 33.2445 24.3077 32.9612L27.8975 31.3556L24.4103 29.5612C23.7949 29.2778 23.3847 28.7112 23.1795 28.1445C23.077 27.4834 23.1795 26.9167 23.4872 26.35L25.3334 23.5167C26.0513 22.3834 27.5898 22.0056 28.8205 22.6667L32.8205 24.7445V20.6834C32.8205 19.3612 33.9487 18.3223 35.3846 18.3223H39.0769C40.5128 18.3223 41.641 19.3612 41.641 20.6834V25.1223L46.1539 23.0445ZM49.2308 28.4278C49.4359 28.3334 49.5385 28.2389 49.5385 28.1445C49.641 28.1445 49.641 27.9556 49.641 27.7667L48 24.8389C47.8975 24.65 47.5898 24.5556 47.2821 24.65L41.3334 27.3889C41.0257 27.5778 40.6154 27.5778 40.3077 27.3889C40 27.2945 39.7949 26.9167 39.7949 26.6334V20.6834C39.7949 20.4 39.5898 20.2112 39.2821 20.2112H35.5898C35.2821 20.2112 35.0769 20.4 35.0769 20.6834V26.35C35.0769 26.7278 34.8718 27.0112 34.5641 27.2C34.2564 27.3889 33.8462 27.3889 33.5385 27.2L28 24.3667C27.7949 24.2723 27.3846 24.3667 27.2821 24.5556L25.4359 27.3889V27.6723C25.4359 27.7667 25.5385 27.8612 25.6411 27.9556L30.8718 30.6C31.1795 30.7889 31.3846 31.0723 31.3846 31.45C31.2821 31.8278 31.077 32.1112 30.7693 32.3L25.4359 34.7556C25.2308 34.85 25.1282 34.9445 25.1282 35.0389C25.0257 35.0389 25.0257 35.2278 25.1282 35.3223L26.7693 38.25C26.8718 38.4389 27.1795 38.5334 27.4872 38.4389L33.4359 35.7C33.5385 35.6056 33.6411 35.6056 33.8462 35.6056C33.9963 35.6056 34.0915 35.6562 34.2123 35.7204C34.2564 35.7439 34.304 35.7692 34.359 35.7945C34.6667 35.8889 34.8718 36.2667 34.8718 36.55V42.5C34.8718 42.7834 35.0769 42.9723 35.3846 42.9723H39.0769C39.3846 42.9723 39.5898 42.7834 39.5898 42.5V36.8334C39.5898 36.4556 39.7949 36.1723 40.1026 35.9834C40.4103 35.7945 40.8205 35.7945 41.1282 35.9834L46.6667 38.8167C46.8718 38.9112 47.2821 38.8167 47.3846 38.6278L49.2308 35.7945V35.5112C49.2308 35.4167 49.1282 35.3223 49.0257 35.2278L43.7949 32.5834C43.4872 32.3945 43.2821 32.1112 43.2821 31.7334C43.3846 31.3556 43.5898 31.0723 43.8975 30.8834L49.2308 28.4278Z" fill="#FFFDFD"/>
<path fill-rule="evenodd" clip-rule="evenodd" d="M16.3078 11.9945C29.2309 6.04448 44.6155 6.04448 57.5385 11.9945C60.5129 13.4111 62.3591 16.15 62.3591 19.1723V32.1111C62.3591 35.7 61.6411 39.1 60.2052 42.3111L60.1026 42.5C57.5385 48.45 52.718 53.2667 46.6668 56.1945L38.3591 60.1611C37.9488 60.35 37.436 60.4445 36.9232 60.4445C36.4104 60.4445 35.8975 60.35 35.4873 60.1611L27.077 56.1C20.9232 53.1723 16.1027 48.2612 13.5386 42.3111C12.2053 39.1 11.4873 35.7 11.4873 32.3V19.1723C11.4873 16.15 13.3335 13.3167 16.3078 11.9945ZM58.2565 41.65C59.5898 38.6278 60.3078 35.4167 60.3078 32.2056V19.1723C60.3078 16.8111 58.8719 14.7334 56.6155 13.6945C50.4616 10.8611 43.6924 9.44448 36.9232 9.44448C30.154 9.44448 23.3847 10.8611 17.2309 13.6945C14.9745 14.7334 13.5386 16.8111 13.5386 19.1723V32.3C13.5386 35.5112 14.154 38.6278 15.4873 41.5556C17.8463 47.1278 22.2565 51.6611 28.0001 54.4L36.4104 58.4612C36.718 58.65 37.0257 58.65 37.3334 58.4612L45.6411 54.4945C51.2821 51.7556 55.6924 47.3167 58.1539 41.8389L58.2565 41.65Z" fill="#FFFDFD"/>
</svg>
