<svg width="72" height="77" viewBox="0 0 72 77" fill="none" xmlns="http://www.w3.org/2000/svg">
<path fill-rule="evenodd" clip-rule="evenodd" d="M47.3004 33.6043H50.5004C52.7004 33.6043 54.4004 35.5124 54.4004 37.7385C54.4004 39.9647 52.7004 41.8728 50.5004 41.8728H47.3004V45.265C47.3004 47.4912 45.5004 49.3993 43.4004 49.3993C41.3004 49.3993 39.5004 47.5972 39.5004 45.265V41.8728H36.3004C34.2004 41.8728 32.4004 39.9647 32.4004 37.7385C32.4004 35.5124 34.1004 33.6043 36.3004 33.6043H39.5004V30.212C39.5004 27.9859 41.3004 26.0778 43.4004 26.0778C45.5004 26.0778 47.3004 27.8799 47.3004 30.212V33.6043ZM46.3004 39.7527H50.5004C51.6004 39.7527 52.5004 38.9046 52.4004 37.7385C52.4004 36.6785 51.6004 35.7244 50.5004 35.7244H46.3004C45.7004 35.7244 45.3004 35.3004 45.3004 34.6643V30.212C45.3004 29.152 44.5004 28.1979 43.4004 28.1979C42.4004 28.1979 41.5004 29.046 41.5004 30.212V34.6643C41.5004 35.3004 41.1004 35.7244 40.5004 35.7244H36.3004C35.3004 35.7244 34.4004 36.5725 34.4004 37.7385C34.4004 38.7986 35.2004 39.7527 36.3004 39.7527H40.5004C41.1004 39.7527 41.5004 40.1767 41.5004 40.8127V45.265C41.5004 46.3251 42.3004 47.2792 43.4004 47.2792C44.4004 47.2792 45.3004 46.4311 45.3004 45.265V40.8127C45.3004 40.1767 45.7004 39.7527 46.3004 39.7527Z" fill="white"/>
<path fill-rule="evenodd" clip-rule="evenodd" d="M29.8 23.4275C33.2 19.8233 37.9 17.5971 43.1 17.5971C53.6 17.5971 62.1 26.7138 62.1 37.8445C62.1 48.9753 53.6 57.9858 43.1 57.9858C38.1 57.9858 33.5 55.8657 30.1 52.4735H20.6V62.2261C20.6 65.3003 18.2 67.8445 15.3 67.8445C12.4 67.8445 10 65.3003 10 62.2261V14.2049C10 11.1307 12.4 8.58655 15.3 8.58655C18.2 8.58655 20.6 11.1307 20.6 14.2049V23.4275H29.8ZM15.3 65.7244C17.1 65.7244 18.6 64.1343 18.6 62.2261V14.0989C18.6 12.1908 17.1 10.6007 15.3 10.6007C13.5 10.6007 12 12.1908 12 14.0989V62.2261C12 64.1343 13.5 65.7244 15.3 65.7244ZM20.6 25.5477H28C25.5 28.9399 24.1 33.1802 24.1 37.7385C24.1 42.5088 25.7 46.8551 28.3 50.2473H20.6V25.5477ZM26.1 37.7385C26.1 47.7032 33.7 55.7597 43.1 55.7597C52.5 55.7597 60.1 47.7032 60.1 37.7385C60.1 27.7738 52.5 19.7173 43.1 19.7173C33.7 19.7173 26.1 27.7738 26.1 37.7385Z" fill="white"/>
</svg>
