<svg width="72" height="72" viewBox="0 0 72 72" fill="none" xmlns="http://www.w3.org/2000/svg">
<path fill-rule="evenodd" clip-rule="evenodd" d="M39.2 25.1H41.3C43.1 25.1 44.5 26.5 44.5 28.3C44.5 30.1 43.1 31.5 41.3 31.5H39.2V33.6C39.2 35.4 37.8 36.8 36 36.8C34.2 36.8 32.8 35.4 32.8 33.6V31.5H30.7C28.9 31.5 27.5 30.1 27.5 28.3C27.5 26.5 28.9 25.1 30.7 25.1H32.8V23C32.8 21.2 34.2 19.8 36 19.8C37.8 19.8 39.2 21.2 39.2 23V25.1ZM38.2 29.5H41.3C42 29.5 42.5 29 42.5 28.3C42.5 27.6 42 27.1 41.3 27.1H38.2C37.6 27.1 37.2 26.7 37.2 26.1V23C37.2 22.3 36.7 21.8 36 21.8C35.3 21.8 34.8 22.3 34.8 23V26.1C34.8 26.7 34.4 27.1 33.8 27.1H30.7C30 27.1 29.5 27.6 29.5 28.3C29.5 29 30 29.5 30.7 29.5H33.8C34.4 29.5 34.8 29.9 34.8 30.5V33.6C34.8 34.3 35.3 34.8 36 34.8C36.7 34.8 37.2 34.3 37.2 33.6V30.5C37.2 29.9 37.6 29.5 38.2 29.5Z" fill="#0077B6"/>
<path fill-rule="evenodd" clip-rule="evenodd" d="M22 28.3C22 20.6 28.3 14.3 36 14.3C43.7 14.3 50 20.6 50 28.3C50 36 43.7 42.3 36 42.3C28.3 42.3 22 36 22 28.3ZM24 28.3C24 34.9 29.4 40.3 36 40.3C42.6 40.3 48 34.9 48 28.3C48 21.7 42.6 16.3 36 16.3C29.4 16.3 24 21.7 24 28.3Z" fill="#0077B6"/>
<path fill-rule="evenodd" clip-rule="evenodd" d="M36.0002 8.39999C46.0002 8.39999 54.6002 15.5 56.5002 25.4C56.7002 26.6 56.8002 27.8 56.9002 29V30.6C55.9002 46.8 38.7002 62.2 38.0002 62.8C37.5002 63.2 36.8002 63.5 36.1002 63.5C35.4002 63.5 34.7002 63.3 34.2002 62.8C33.4002 62.1 15.2002 45.9 15.2002 29.2C15.2002 17.7 24.5002 8.39999 36.0002 8.39999ZM35.5002 61.4C35.8002 61.7 36.3002 61.7 36.6002 61.4C37.3002 60.8 53.9002 46 54.8002 30.7V29.1C54.8002 28 54.7002 26.9 54.5002 25.8C52.8002 16.9 45.0002 10.5 36.0002 10.5C25.6002 10.5 17.2002 18.9 17.2002 29.3C17.2002 44.2933 33.049 59.1066 35.2654 61.1782C35.3847 61.2897 35.4645 61.3643 35.5002 61.4Z" fill="#0077B6"/>
</svg>
