<svg width="379" height="355" viewBox="0 0 379 355" fill="none" xmlns="http://www.w3.org/2000/svg">
<path fill-rule="evenodd" clip-rule="evenodd" d="M236.799 228.656C223.807 256.909 211.925 279.903 191.843 279.694C172.219 279.489 159.744 256.653 145.947 228.656C143.405 223.493 140.816 218.157 138.13 212.753C118.089 172.439 92.5936 128.445 39.6109 126.225C38.4656 126.177 37.4639 126.557 36.6352 127.347C35.8089 128.14 35.3875 129.123 35.3875 130.267V224.613C35.3875 226.84 37.2073 228.657 39.439 228.657H134.077C136.309 228.657 138.129 230.472 138.129 232.7V327.132C138.129 329.357 139.95 331.174 142.18 331.174H236.819C239.05 331.174 240.87 329.357 240.87 327.132V232.7C240.87 230.473 242.691 228.657 244.922 228.657H339.56C341.792 228.657 343.612 226.84 343.612 224.613V130.267C343.612 129.123 343.19 128.14 342.364 127.347C341.536 126.557 340.533 126.177 339.388 126.227C283.609 128.586 260.083 177.708 240.87 219.748C239.494 222.761 238.139 225.736 236.797 228.656" fill="#0077B6"/>
<path fill-rule="evenodd" clip-rule="evenodd" d="M138.129 75.0872C138.129 46.7772 161.128 23.8267 189.5 23.8267C217.872 23.8267 240.87 46.7772 240.87 75.0872C240.87 103.397 217.871 126.345 189.5 126.345C161.129 126.345 138.129 103.395 138.129 75.0872Z" fill="#D9D9D9"/>
</svg>
