<svg width="74" height="68" viewBox="0 0 74 68" fill="none" xmlns="http://www.w3.org/2000/svg">
<path fill-rule="evenodd" clip-rule="evenodd" d="M8.20508 34C8.20508 48.5444 21.1281 60.4444 36.923 60.4444C52.7179 60.4444 65.6409 48.5444 65.6409 34C65.6409 19.4555 52.7179 7.55554 36.923 7.55554C21.1281 7.55554 8.20508 19.4555 8.20508 34ZM10.2564 34C10.2564 20.4944 22.2563 9.44443 36.923 9.44443C51.5896 9.44443 63.5896 20.4944 63.5896 34C63.5896 47.5055 51.5896 58.5555 36.923 58.5555C22.2563 58.5555 10.2564 47.5055 10.2564 34Z" fill="#FFFDFD"/>
<path fill-rule="evenodd" clip-rule="evenodd" d="M30.7689 24.8388C29.8458 24.8388 29.0253 24.5555 28.3074 23.8944L25.333 21.1555C24.6151 20.4944 24.3074 19.6444 24.3074 18.7C24.4099 17.7555 24.9228 16.9055 25.7433 16.3388C29.0253 14.1666 32.9228 12.9388 36.9228 12.9388C41.0253 12.9388 44.8202 14.0722 48.1022 16.3388C48.9227 16.9055 49.4356 17.7555 49.5381 18.7C49.6407 19.6444 49.2304 20.4944 48.5125 21.1555L45.5381 23.8944C44.4099 24.9333 42.5638 25.1222 41.2304 24.2722C38.6663 22.7611 35.1792 22.7611 32.6151 24.2722C31.9997 24.65 31.3843 24.8388 30.7689 24.8388ZM30.7689 34C30.7689 37.1166 33.5381 39.6666 36.9228 39.6666C40.3074 39.6666 43.0766 37.1166 43.0766 34C43.0766 30.8833 40.3074 28.3333 36.9228 28.3333C33.5381 28.3333 30.7689 30.8833 30.7689 34ZM32.8202 34C32.8202 31.9222 34.6663 30.2222 36.9228 30.2222C39.1792 30.2222 41.0253 31.9222 41.0253 34C41.0253 36.0777 39.1792 37.7777 36.9228 37.7777C34.6663 37.7777 32.8202 36.0777 32.8202 34ZM26.8715 17.85C29.8458 15.8666 33.333 14.8277 36.9228 14.8277C40.5125 14.8277 43.9997 15.8666 46.7689 17.85C47.1792 18.0388 47.3843 18.4166 47.3843 18.7944C47.3843 19.1722 47.2817 19.55 46.974 19.8333L43.9997 22.5722C43.4869 23.0444 42.7689 23.0444 42.2561 22.7611C39.0766 20.8722 34.6663 20.8722 31.3843 22.7611C30.7689 23.0444 30.051 22.95 29.6407 22.5722L26.6664 19.8333C26.3587 19.55 26.2561 19.1722 26.2561 18.7944C26.3587 18.4166 26.5638 18.0388 26.8715 17.85ZM46.5638 52.8888C46.051 52.8888 45.5381 52.7944 45.0253 52.5111C44.1022 52.1333 43.4869 51.3777 43.1792 50.4333L42.1535 46.6555C41.7433 45.2388 42.5638 43.7277 43.9997 43.0666C45.333 42.4055 46.5638 41.4611 47.2817 40.2333C48.1022 39.0055 48.5125 37.5888 48.4099 36.1722C48.3074 34.6611 49.4356 33.3388 50.974 32.9611L55.0766 32.0166C55.9997 31.8277 57.1279 32.0166 57.8458 32.4888C58.6663 33.0555 59.1791 33.9055 59.2817 34.7555C59.692 38.4388 58.7689 42.1222 56.615 45.3333C54.5638 48.5444 51.4868 51 47.692 52.5111C47.4869 52.7944 46.974 52.8888 46.5638 52.8888ZM55.692 33.9055H55.9997C56.169 33.9055 56.3074 33.9341 56.4317 33.9599C56.5332 33.9809 56.6254 34 56.7176 34C57.1279 34.1888 57.333 34.5666 57.333 34.9444C57.6407 38.25 56.8202 41.5555 54.974 44.3888C53.1279 47.2222 50.3586 49.3944 47.0766 50.7166C46.7689 50.9055 46.3586 50.9055 45.9484 50.7166C45.5381 50.5277 45.333 50.2444 45.2304 49.8666L44.2048 46.0888C43.9997 45.5222 44.3074 44.9555 44.9227 44.6722C46.6663 43.9166 48.1022 42.6888 49.1279 41.1777C50.1535 39.5722 50.6663 37.8722 50.5638 36.0777C50.5638 35.5111 50.974 35.0388 51.5894 34.85L55.692 33.9055ZM27.2817 52.8888C26.8715 52.8888 26.3587 52.7944 25.9484 52.6055C22.2561 51.1888 19.1792 48.6388 17.0253 45.4277C14.9741 42.2166 14.051 38.5333 14.3587 34.85C14.4612 33.9055 14.9741 33.0555 15.7946 32.5833C16.6151 32.0166 17.6407 31.8277 18.6664 32.1111L22.7689 33.0555C24.3074 33.4333 25.4356 34.7555 25.333 36.2666C25.2305 37.6833 25.6407 39.1 26.4612 40.3277C27.2817 41.5555 28.4099 42.5 29.7433 43.1611C31.1792 43.8222 31.8971 45.3333 31.5894 46.75L30.5638 50.5277C30.3587 51.3777 29.6407 52.1333 28.7176 52.6055C28.4099 52.7944 27.7946 52.8888 27.2817 52.8888ZM17.2065 34.0361C17.4231 33.9646 17.6024 33.9055 17.8459 33.9055C17.9484 33.9055 18.051 33.9055 18.051 34L22.1535 34.9444C22.7689 35.0388 23.1792 35.6055 23.1792 36.1722C23.0766 37.9666 23.5894 39.7611 24.6151 41.2722C25.6407 42.7833 27.0766 44.0111 28.8202 44.7666C29.4356 45.05 29.7433 45.6166 29.5381 46.1833L28.5125 49.9611C28.4099 50.3388 28.2048 50.6222 27.7946 50.8111C27.4869 50.9055 27.0766 51 26.6664 50.8111C23.3843 49.5833 20.6151 47.3166 18.7689 44.4833C16.9228 41.65 16.1023 38.3444 16.41 35.0388C16.5125 34.6611 16.7176 34.2833 17.0253 34.0944C17.0896 34.0747 17.1493 34.055 17.2065 34.0361Z" fill="#FFFDFD"/>
</svg>
