<svg width="72" height="77" viewBox="0 0 72 77" fill="none" xmlns="http://www.w3.org/2000/svg">
<path fill-rule="evenodd" clip-rule="evenodd" d="M50.8008 22.5796C50.8008 31.2721 44.1008 38.2686 36.0008 38.2686C27.8008 38.2686 21.3008 31.2721 21.3008 22.5796C21.3008 13.887 28.0008 6.8905 36.1008 6.8905C42.3008 6.8905 47.6008 10.9188 49.8008 16.7492V16.8552C50.4008 18.6573 50.8008 20.5654 50.8008 22.5796ZM47.3008 16.1131C45.1008 11.8728 40.9008 9.01064 36.0008 9.01064C31.1008 9.01064 26.9008 11.9788 24.8008 16.1131H28.1008C28.6008 13.887 30.5008 12.1909 32.8008 12.1909C35.1008 12.1909 37.0008 13.887 37.5008 16.1131H47.3008ZM32.7008 14.311C34.3008 14.311 35.5008 15.6891 35.5008 17.2792C35.5008 18.8693 34.2008 20.2474 32.7008 20.2474C31.2008 20.2474 29.9008 18.8693 29.9008 17.2792C29.9008 15.6891 31.1008 14.311 32.7008 14.311ZM27.9008 18.3393H23.8008C23.4008 19.6114 23.2008 21.0955 23.1008 22.5796C23.1008 30.1061 28.8008 36.1485 35.9008 36.1485C43.0008 36.1485 48.7008 30 48.7008 22.5796C48.7008 21.0955 48.4008 19.7174 48.0008 18.3393H37.3008C36.9008 20.6714 34.9008 22.4735 32.6008 22.4735C30.3008 22.4735 28.3008 20.6714 27.9008 18.3393Z" fill="white"/>
<path fill-rule="evenodd" clip-rule="evenodd" d="M48.9004 36.5725H50.9004C58.1004 36.5725 64.0004 42.8269 63.9004 50.3534V68.3746C63.9004 69.0107 63.5004 69.4347 62.9004 69.4347H8.90039C8.30039 69.4347 7.90039 69.0107 7.90039 68.3746V50.3534C7.90039 42.7209 13.7004 36.5725 20.9004 36.5725H22.9004C24.0004 36.5725 25.0004 37.2086 25.5004 38.1626L34.3004 51.3075C34.6004 51.8375 35.2004 52.1556 35.9004 52.1556C36.5004 52.1556 37.1004 51.8375 37.5004 51.3075L46.3004 38.1626C46.9004 37.2086 47.8004 36.5725 48.9004 36.5725ZM10.0004 67.3146H62.0004H62.2004V50.3534C62.2004 43.887 57.3004 38.6927 51.2004 38.6927H49.2004C48.8004 38.6927 48.5004 38.9047 48.3004 39.2227C48.2004 39.2227 48.2004 39.3287 48.2004 39.3287L39.4004 52.5796C38.6004 53.7457 37.4004 54.3817 36.1004 54.3817C34.8004 54.3817 33.5004 53.7457 32.8004 52.5796L24.0004 39.3287C23.9004 39.3287 23.9004 39.2227 23.9004 39.2227C23.7004 38.9047 23.4004 38.6927 23.0004 38.6927H21.0004C14.9004 38.6927 10.0004 43.887 10.0004 50.3534V67.3146Z" fill="white"/>
<path d="M57 56.1838H53.5V52.4735C53.5 51.8375 53.1 51.4135 52.5 51.4135C51.9 51.4135 51.5 51.8375 51.5 52.4735V56.1838H48C47.4 56.1838 47 56.6078 47 57.2438C47 57.8799 47.4 58.3039 48 58.3039H51.5V62.0142C51.5 62.6502 51.9 63.0742 52.5 63.0742C53.1 63.0742 53.5 62.6502 53.5 62.0142V58.3039H57C57.6 58.3039 58 57.8799 58 57.2438C58 56.6078 57.5 56.1838 57 56.1838Z" fill="white"/>
</svg>
