<svg width="72" height="72" viewBox="0 0 72 72" fill="none" xmlns="http://www.w3.org/2000/svg">
<path fill-rule="evenodd" clip-rule="evenodd" d="M43.8904 27.5178H39.2547C36.4931 27.5178 34.2246 25.348 34.2246 22.5863C34.2246 19.8247 36.4931 17.6548 39.1561 17.6548H43.7917V13.0192C43.7917 10.2575 46.0602 8.08768 48.7232 8.08768C51.4849 8.08768 53.6547 10.3562 53.6547 13.0192V17.6548H58.2904C61.052 17.6548 63.2219 19.8247 63.2219 22.5863C63.2219 25.348 60.9534 27.5178 58.2904 27.5178H53.7534V32.1534C53.7534 34.9151 51.4849 37.0849 48.8219 37.0849C46.0602 37.0849 43.8904 34.8164 43.8904 32.1534V27.5178ZM44.8767 19.6274H39.2547C37.578 19.6274 36.1972 20.9096 36.1972 22.5863C36.1972 24.263 37.578 25.5452 39.1561 25.5452H44.778C45.3698 25.5452 45.7643 25.9397 45.7643 26.5315V32.1534C45.7643 33.8301 47.0465 35.1123 48.7232 35.1123C50.4 35.1123 51.6821 33.7315 51.6821 32.1534V26.5315C51.6821 25.9397 52.0767 25.5452 52.6684 25.5452H58.2904C59.9671 25.5452 61.2493 24.263 61.2493 22.5863C61.2493 20.9096 59.8684 19.6274 58.2904 19.6274H52.7671C52.1753 19.6274 51.7808 19.2329 51.7808 18.6411V13.0192C51.7808 11.3425 50.4986 10.0603 48.8219 10.0603C47.1452 10.0603 45.863 11.4411 45.863 13.0192V18.6411C45.863 19.2329 45.4684 19.6274 44.8767 19.6274Z" fill="#0077B6"/>
<path fill-rule="evenodd" clip-rule="evenodd" d="M51.9783 44.1863L60.855 50.4986C61.8413 51.189 62.5317 52.274 62.6304 53.5562C62.729 54.7397 62.3345 55.9233 61.4468 56.811L60.4605 57.7973C57.1071 61.1507 52.6687 62.926 48.0331 62.926C44.581 62.926 41.3262 61.9397 38.466 60.0658L35.0139 57.7973C26.1372 52.0767 18.7399 44.5808 13.0194 35.7041L10.8495 32.2521C8.97556 29.3918 7.98926 26.0384 7.98926 22.5863C7.98926 17.9507 9.7646 13.611 13.0194 10.3562L14.1043 9.27123C14.8934 8.38356 16.1756 7.98904 17.3591 8.08767C18.6413 8.1863 19.7262 8.87671 20.4167 9.86301L21.1071 10.6521L27.4194 19.5288C28.603 21.2055 28.4057 23.3753 26.9262 24.8548L24.1646 27.6164C23.3756 28.4055 23.1783 29.589 23.6714 30.5753C27.3208 38.0712 33.4358 44.2849 40.9317 47.8356C41.918 48.3288 43.1016 48.1315 43.8906 47.3425L46.6523 44.6795C48.0331 43.2 50.3016 43.0027 51.9783 44.1863ZM58.981 56.4164L59.9673 55.4301C60.4605 54.937 60.6578 54.3452 60.6578 53.6548C60.6578 53.063 60.2632 52.4712 59.7701 52.0767L50.8934 45.7644C50.0057 45.074 48.8221 45.1726 48.0331 45.9616L45.2715 48.7233C43.8906 50.1041 41.8194 50.4 40.0441 49.611C32.1536 45.863 25.6441 39.3534 21.8961 31.463C21.0084 29.6877 21.403 27.6164 22.7838 26.2356L25.6441 23.6712C26.3345 22.8822 26.4331 21.6986 25.8413 20.811L19.529 11.9342L18.9372 11.1452C18.4441 10.5534 17.9509 10.2575 17.2605 10.1589C16.5701 10.0603 15.9783 10.2575 15.4851 10.7507L14.4002 11.8356C11.5399 14.6959 9.96186 18.5425 9.96186 22.5863C9.96186 25.6438 10.8495 28.6027 12.5262 31.1671L14.6961 34.6192C20.318 43.2986 27.518 50.4986 36.0988 56.1205L39.5509 58.389C42.1153 60.0658 44.9756 60.9534 48.0331 60.9534C52.1756 60.9534 56.0221 59.3753 58.981 56.4164Z" fill="#0077B6"/>
</svg>
