<svg width="41" height="41" viewBox="0 0 41 41" fill="none" xmlns="http://www.w3.org/2000/svg">
<path fill-rule="evenodd" clip-rule="evenodd" d="M26.7917 27.4945C25.0636 31.2165 23.4831 34.2457 20.8117 34.2181C18.2013 34.1911 16.5419 31.1828 14.7067 27.4945C14.3685 26.8143 14.0241 26.1113 13.6668 25.3994C11.0009 20.0886 7.60957 14.293 0.561805 14.0005C0.409454 13.9942 0.276205 14.0442 0.165974 14.1483C0.0560553 14.2527 0 14.3823 0 14.533V26.9619C0 27.2552 0.242071 27.4946 0.538944 27.4946H13.1277C13.4246 27.4946 13.6667 27.7337 13.6667 28.0272V40.4674C13.6667 40.7606 13.9089 41 14.2056 41H26.7944C27.0913 41 27.3333 40.7606 27.3333 40.4674V28.0272C27.3333 27.7338 27.5756 27.4946 27.8723 27.4946H40.461C40.7579 27.4946 41 27.2552 41 26.9619V14.533C41 14.3823 40.9439 14.2527 40.834 14.1483C40.7239 14.0442 40.5905 13.9942 40.4382 14.0007C33.0184 14.3115 29.889 20.7827 27.3333 26.321C27.1503 26.7179 26.9701 27.1098 26.7916 27.4945" fill="white"/>
<path fill-rule="evenodd" clip-rule="evenodd" d="M14 7.00016C14 3.13414 17.134 0 21.0001 0C24.8661 0 28 3.13414 28 7.00016C28 10.8662 24.866 14 21.0001 14C17.1342 14 14 10.8659 14 7.00016Z" fill="white"/>
</svg>
